<?xml version="1.0" encoding="utf-8"?>
<svg width="38.582" height="55.716" viewBox="0 0 38.582 55.716" fill="none" xmlns="http://www.w3.org/2000/svg">
  <g id="Logo" transform="translate(0 0)">
    <path id="Vector" d="M17.4403 2L0 2L0 0L34.8806 0L34.8806 2L17.4403 2L17.4403 2Z" fill="#7EB693" fill-rule="evenodd" transform="translate(1.851 40.926)" />
    <path id="Vector" d="M13.5 2L0 2L0 0L27 3.8147e-06L27 2L13.5 2L13.5 2Z" fill="#7EB693" fill-rule="evenodd" transform="matrix(1 0 -0 1 5.791 47.358)" />
    <path id="Vector" d="M7 2L0 2L0 0L14 0L14 2L7 2L7 2Z" fill="#7EB693" fill-rule="evenodd" transform="matrix(-0 1 -1 -0 18.791 0.358)" />
    <path id="Vector" d="M0 0L0 26.4316L2 26.4316L2 0L0 0L0 0Z" fill="#7EB693" fill-rule="evenodd" transform="translate(17.866 14.642)" />
    <path id="Vector" d="M11.0597 0L0 11.0842L1.41578 12.4968L12.4755 1.41265L11.0597 0L11.0597 0Z" fill="#7EB693" fill-rule="evenodd" transform="translate(18.158 3.704)" />
    <path id="Vector" d="M15.3134 0L0 15.3473L1.41578 16.76L16.7292 1.41265L15.3134 0L15.3134 0Z" fill="#7EB693" fill-rule="evenodd" transform="translate(18.158 7.968)" />
    <path id="Vector" d="M17.8657 0L0 17.0527L1.38091 18.4994L19.2466 1.44675L17.8657 0L17.8657 0Z" fill="#7EB693" fill-rule="evenodd" transform="translate(18.175 14.771)" />
    <path id="Vector" d="M18.7164 0L0 18.7579L1.41578 20.1705L20.1322 1.41265L18.7164 0L18.7164 0Z" fill="#7EB693" fill-rule="evenodd" transform="translate(18.158 22.462)" />
    <path id="Vector" d="M10.209 0L0 10.2316L1.41578 11.6442L11.6247 1.41265L10.209 0L10.209 0Z" fill="#7EB693" fill-rule="evenodd" transform="translate(26.665 30.989)" />
    <path id="Vector" d="M0 1.41265L10.209 11.6442L11.6247 10.2316L1.41578 0L0 1.41265L0 1.41265Z" fill="#7EB693" fill-rule="evenodd" transform="translate(0.292 30.989)" />
    <path id="Vector" d="M0 1.35494L10.209 12.4392L11.6801 11.0842L1.4711 0L0 1.35494L0 1.35494Z" fill="#7EB693" fill-rule="evenodd" transform="translate(7.921 3.733)" />
    <path id="Vector" d="M0 1.37164L14.4627 16.719L15.9183 15.3473L1.45554 0L0 1.37164L0 1.37164Z" fill="#7EB693" fill-rule="evenodd" transform="translate(3.675 7.988)" />
    <path id="Vector" d="M0 1.37771L17.0149 19.283L18.4647 17.9053L1.4498 0L0 1.37771L0 1.37771Z" fill="#7EB693" fill-rule="evenodd" transform="translate(1.126 13.953)" />
    <path id="Vector" d="M0 1.37935L17.8657 20.1373L19.3139 18.7579L1.44824 0L0 1.37935L0 1.37935Z" fill="#7EB693" fill-rule="evenodd" transform="translate(0.276 21.626)" />
    <path id="Vector" d="M19.291 0C8.60823 0 0 8.93205 0 19.8806L0 35.8351C0 46.7857 8.6083 55.7158 19.291 55.7158C29.9755 55.7158 38.584 46.7859 38.5821 35.8351L38.5821 19.8806C38.5821 8.93212 29.9758 0 19.291 0L19.291 0ZM2 19.8806C2 9.97633 9.77214 2 19.291 2C28.8117 2 36.5821 9.97627 36.5821 19.8806L36.5821 35.8353C36.5838 45.7412 28.8119 53.7158 19.291 53.7158C9.77207 53.7158 2 45.7413 2 35.8351L2 19.8806L2 19.8806Z" fill="#7EB693" fill-rule="evenodd" />
  </g>
</svg>
